<svg width="121" height="121" viewBox="0 0 121 121" fill="none" xmlns="http://www.w3.org/2000/svg">
<path d="M46.3275 104.364C41.4454 102.234 37.1846 99.3046 33.7227 95.5764C30.2608 91.8482 27.5978 87.4099 26 82.3502L39.7588 76.4028C41.978 81.5513 45.0848 85.6345 49.2568 88.6526C53.4288 91.5819 58.0447 93.0909 63.2819 93.0909C67.5427 93.0909 71.0046 92.1145 73.6676 90.0729C76.3306 88.0312 77.6621 85.3682 77.6621 82.0839C77.6621 79.4209 76.8632 77.2017 75.2654 75.5152C73.6676 73.8286 71.2709 72.4083 68.1641 71.3431L50.7658 65.7508C43.7533 63.4429 38.4273 60.1586 34.8766 55.809C31.326 51.4594 29.5507 46.311 29.5507 40.4524C29.5507 35.3039 30.7934 30.6881 33.3676 26.6936C35.7643 22.6991 39.315 19.5923 43.9308 17.3731C48.5467 15.154 53.7839 14 59.6425 14C67.809 14 74.9103 16.0416 80.9464 20.2137C86.9826 24.3857 91.2433 29.8004 93.64 36.6354L80.1475 42.6716C78.3722 38.1445 75.7092 34.5938 72.1586 32.1084C68.6079 29.6229 64.4359 28.3802 59.7313 28.3802C55.4705 28.3802 52.0973 29.4454 49.6119 31.487C47.1264 33.5286 45.7949 36.2804 45.7949 39.5647C45.7949 42.0502 46.5938 44.2694 48.2804 46.2222C49.9669 48.0863 52.3636 49.5954 55.648 50.6605L72.3361 55.8978C86.805 60.5136 93.9951 68.8577 93.9951 80.9299C93.9951 86.0784 92.6636 90.6942 90.0006 94.6887C87.3376 98.6832 83.6094 101.79 78.9048 104.009C74.2002 106.317 68.6967 107.382 62.483 107.382C56.6244 107.56 51.2984 106.495 46.3275 104.364Z" fill="#020122"/>
</svg>
