<svg width="255" height="32" viewBox="0 0 255 32" fill="none" xmlns="http://www.w3.org/2000/svg">
<path d="M1.51204 0H0V32H1.51204V0Z" fill="currentColor"/>
<path d="M23.2053 2.66675H20.2429V1.33984H27.6489V2.66675H24.6865V12.3562H23.2053V2.66675Z" fill="currentColor"/>
<path d="M32.2776 1.33984H33.7279V6.2463H39.2515V1.33984H40.7328V12.3871H39.2515V7.57321H33.7279V12.3562H32.2776V1.33984Z" fill="currentColor"/>
<path d="M46.4417 1.33984H53.6316V2.66675H47.892V6.15373H53.323V7.48063H47.892V11.0293H53.6316V12.3562H46.4417V1.33984Z" fill="currentColor"/>
<path d="M65.0801 1.33984H66.5304V12.3871H65.0801V1.33984Z" fill="currentColor"/>
<path d="M72.2391 1.33984H73.566L77.3616 6.74004L81.1263 1.33984H82.4532V12.3871H80.972V4.05537L77.3924 9.11612H77.269L73.6586 3.99365V12.3871H72.2083V1.33984H72.2391Z" fill="currentColor"/>
<path d="M88.1619 1.33984H92.05C92.7906 1.33984 93.4078 1.46328 93.9632 1.741C94.5187 2.01873 94.9507 2.41988 95.2593 2.91361C95.5678 3.40735 95.7221 4.02451 95.7221 4.73425C95.7221 5.41313 95.5678 6.0303 95.2593 6.55489C94.9507 7.07948 94.5187 7.44978 93.9632 7.7275C93.4078 8.00523 92.7598 8.12866 92.05 8.12866H89.6122V12.3562H88.1619V1.33984ZM92.1117 6.80175C92.7598 6.80175 93.3152 6.6166 93.6855 6.2463C94.0867 5.87601 94.2718 5.38227 94.2718 4.73425C94.2718 4.08623 94.0867 3.5925 93.6855 3.2222C93.2843 2.8519 92.7598 2.66675 92.1117 2.66675H89.6122V6.80175H92.1117V6.80175Z" fill="currentColor"/>
<path d="M100.968 1.33984H104.856C105.597 1.33984 106.214 1.46328 106.769 1.741C107.325 2.01873 107.757 2.41988 108.066 2.91361C108.374 3.40735 108.528 4.02451 108.528 4.73425C108.528 5.50571 108.343 6.18459 107.942 6.74004C107.541 7.29549 107.016 7.66578 106.337 7.91265L108.899 12.3871H107.201L104.825 8.15952H102.388V12.3871H100.937V1.33984H100.968ZM104.918 6.80175C105.566 6.80175 106.091 6.6166 106.492 6.2463C106.893 5.87601 107.078 5.38227 107.078 4.73425C107.078 4.08623 106.893 3.5925 106.492 3.2222C106.091 2.8519 105.566 2.66675 104.918 2.66675H102.418V6.80175H104.918V6.80175Z" fill="currentColor"/>
<path d="M116.922 12.1093C116.243 11.8316 115.657 11.4304 115.132 10.9058C114.607 10.3813 114.206 9.79495 113.929 9.08521C113.651 8.40632 113.497 7.63487 113.497 6.8017C113.497 5.96852 113.651 5.19707 113.929 4.51819C114.206 3.83931 114.607 3.22214 115.132 2.72841C115.626 2.23468 116.243 1.83352 116.922 1.55579C117.601 1.27807 118.341 1.12378 119.113 1.12378C119.915 1.12378 120.625 1.27807 121.304 1.55579C121.983 1.83352 122.569 2.23468 123.093 2.72841C123.618 3.22214 124.019 3.8393 124.297 4.54904C124.575 5.25878 124.729 5.99938 124.729 6.83255C124.729 7.66573 124.575 8.43718 124.297 9.11606C124.019 9.79495 123.618 10.4121 123.093 10.9367C122.569 11.4613 121.983 11.8624 121.304 12.1402C120.625 12.4179 119.884 12.5722 119.113 12.5722C118.341 12.5413 117.601 12.387 116.922 12.1093ZM121.273 10.5973C121.89 10.1961 122.384 9.67151 122.754 9.02349C123.124 8.37547 123.279 7.63487 123.279 6.83255C123.279 6.03024 123.093 5.28964 122.754 4.64162C122.384 3.9936 121.921 3.46901 121.273 3.06785C120.656 2.66669 119.946 2.48154 119.113 2.48154C118.31 2.48154 117.601 2.66669 116.953 3.06785C116.336 3.46901 115.842 3.9936 115.471 4.64162C115.101 5.28964 114.947 6.03024 114.947 6.83255C114.947 7.63487 115.132 8.37547 115.471 9.02349C115.842 9.67151 116.305 10.1961 116.953 10.5973C117.57 10.9984 118.28 11.1836 119.082 11.1836C119.915 11.1836 120.625 10.9984 121.273 10.5973Z" fill="currentColor"/>
<path d="M128.74 1.33984H130.283L133.524 10.5973L136.733 1.33984H138.276L134.295 12.3871H132.69L128.74 1.33984Z" fill="currentColor"/>
<path d="M142.935 1.33984H144.386V12.3871H142.935V1.33984Z" fill="currentColor"/>
<path d="M151.668 12.1404C151.082 11.8626 150.588 11.5232 150.187 11.0603C149.786 10.5975 149.477 10.1037 149.323 9.54827L150.588 9.02368C150.835 9.73342 151.236 10.2889 151.761 10.6592C152.285 11.0295 152.902 11.2146 153.612 11.2146C154.26 11.2146 154.785 11.0603 155.186 10.7517C155.587 10.4432 155.772 10.042 155.772 9.51742C155.772 9.05454 155.649 8.68424 155.371 8.40652C155.093 8.12879 154.723 7.94364 154.229 7.78935L152.193 7.17219C151.39 6.92532 150.773 6.52417 150.341 5.99958C149.909 5.47498 149.693 4.85782 149.693 4.14808C149.693 3.53092 149.847 3.00633 150.125 2.54345C150.403 2.08058 150.835 1.71028 151.329 1.46341C151.853 1.21655 152.439 1.06226 153.087 1.06226C153.735 1.06226 154.353 1.18569 154.877 1.43255C155.402 1.67942 155.865 1.988 156.266 2.38916C156.636 2.79032 156.914 3.25319 157.099 3.74692L155.865 4.27151C155.649 3.65435 155.278 3.19147 154.815 2.85203C154.322 2.51259 153.766 2.3583 153.149 2.3583C152.563 2.3583 152.069 2.51259 151.699 2.82118C151.329 3.12976 151.143 3.53092 151.143 4.05551C151.143 4.45666 151.267 4.7961 151.514 5.13554C151.761 5.44413 152.162 5.69099 152.686 5.87614L154.538 6.43159C156.297 6.98704 157.161 7.9745 157.161 9.39398C157.161 10.0111 157.006 10.5357 156.698 10.9986C156.389 11.4615 155.957 11.8318 155.402 12.0786C154.846 12.3255 154.229 12.4798 153.489 12.4798C152.902 12.5415 152.254 12.4181 151.668 12.1404Z" fill="currentColor"/>
<path d="M162.345 1.33984H163.796V12.3871H162.345V1.33984Z" fill="currentColor"/>
<path d="M169.504 1.33984H170.708L176.509 9.48642V1.33984H177.99V12.3871H176.787L170.986 4.11709V12.3871H169.535V1.33984H169.504Z" fill="currentColor"/>
<path d="M186.631 12.1094C185.983 11.8317 185.396 11.4305 184.903 10.9368C184.409 10.4431 184.039 9.8259 183.761 9.11616C183.483 8.40642 183.36 7.66582 183.36 6.83265C183.36 5.99948 183.483 5.22802 183.761 4.54914C184.039 3.87026 184.409 3.25309 184.903 2.7285C185.396 2.20391 185.952 1.80276 186.631 1.52503C187.279 1.24731 188.019 1.09302 188.791 1.09302C189.562 1.09302 190.241 1.21645 190.827 1.49417C191.445 1.7719 191.938 2.11134 192.37 2.54335C192.802 2.97537 193.08 3.40739 193.265 3.90112L191.969 4.54914C191.722 3.90112 191.321 3.40739 190.766 3.03709C190.21 2.66679 189.562 2.48164 188.791 2.48164C188.019 2.48164 187.34 2.66679 186.754 3.03709C186.168 3.40739 185.705 3.90112 185.365 4.54914C185.026 5.19716 184.872 5.96862 184.872 6.83265C184.872 7.69668 185.057 8.43728 185.396 9.0853C185.736 9.73333 186.199 10.2579 186.816 10.5974C187.402 10.9677 188.112 11.1528 188.852 11.1528C189.531 11.1528 190.118 10.9985 190.673 10.7208C191.198 10.4431 191.63 10.0419 191.969 9.54818C192.309 9.05444 192.463 8.46814 192.463 7.78926V7.72754H188.852V6.46235H193.913V7.44982C193.913 8.22127 193.79 8.90015 193.512 9.51732C193.234 10.1345 192.895 10.6591 192.401 11.1219C191.907 11.5848 191.414 11.8934 190.796 12.1403C190.179 12.3871 189.531 12.5106 188.852 12.5106C188.019 12.5414 187.309 12.3871 186.631 12.1094Z" fill="currentColor"/>
<path d="M23.1743 29.9145C22.588 29.6368 22.0943 29.2974 21.6931 28.8345C21.292 28.3716 20.9834 27.8779 20.8291 27.3224L22.0943 26.7979C22.3411 27.5076 22.7423 28.063 23.2669 28.4333C23.7915 28.8036 24.4086 28.9888 25.1184 28.9888C25.7664 28.9888 26.291 28.8345 26.6922 28.5259C27.0933 28.2173 27.2785 27.8162 27.2785 27.2916C27.2785 26.8287 27.155 26.4584 26.8773 26.1807C26.5996 25.903 26.2293 25.7178 25.7356 25.5635L23.6989 24.9464C22.8966 24.6995 22.2794 24.2983 21.8474 23.7737C21.4154 23.2492 21.1994 22.632 21.1994 21.9223C21.1994 21.3051 21.3537 20.7805 21.6314 20.3176C21.9091 19.8547 22.3412 19.4844 22.8349 19.2376C23.3595 18.9907 23.9458 18.8364 24.5938 18.8364C25.2418 18.8364 25.859 18.9599 26.3836 19.2067C26.9082 19.4536 27.371 19.7622 27.7722 20.1633C28.1425 20.5645 28.4202 21.0274 28.6054 21.5211L27.371 22.0457C27.155 21.4285 26.7847 20.9656 26.3219 20.6262C25.8281 20.2868 25.2727 20.1325 24.6555 20.1325C24.0692 20.1325 23.5755 20.2868 23.2052 20.5953C22.8349 20.9039 22.6497 21.3051 22.6497 21.8297C22.6497 22.2308 22.7732 22.5703 23.02 22.9097C23.2669 23.2183 23.668 23.4652 24.1926 23.6503L26.0441 24.2058C27.8031 24.7612 28.6671 25.7487 28.6671 27.1682C28.6671 27.7853 28.5128 28.3099 28.2042 28.7728C27.8956 29.2357 27.4636 29.606 26.9082 29.8528C26.3527 30.0997 25.7356 30.254 24.995 30.254C24.3778 30.3157 23.7298 30.1923 23.1743 29.9145Z" fill="currentColor"/>
<path d="M36.4744 25.1005L32.6479 19.114H34.2834L37.1841 23.681L40.0848 19.114H41.7203L37.9247 25.1005V30.1613H36.4435V25.1005H36.4744Z" fill="currentColor"/>
<path d="M46.3797 19.114H47.7066L51.5022 24.5142L55.2669 19.114H56.5938V30.1613H55.1126V21.8295L51.5331 26.8903H51.4096L47.7992 21.7678V30.1613H46.3489V19.114H46.3797Z" fill="currentColor"/>
<path d="M62.3027 19.114H66.1909C66.9315 19.114 67.5486 19.2374 68.1041 19.5152C68.6595 19.7929 69.0915 20.1941 69.4001 20.6878C69.7087 21.1815 69.863 21.7987 69.863 22.5084C69.863 23.1873 69.7087 23.8045 69.4001 24.3291C69.0915 24.8536 68.6595 25.2239 68.1041 25.5017C67.5486 25.7794 66.9006 25.9028 66.1909 25.9028H63.7531V30.1304H62.3027V19.114ZM66.2217 24.5759C66.8698 24.5759 67.4252 24.3908 67.7955 24.0205C68.1967 23.6502 68.3818 23.1564 68.3818 22.5084C68.3818 21.8604 68.1967 21.3667 67.7955 20.9964C67.3943 20.6261 66.8698 20.4409 66.2217 20.4409H63.7531V24.5759H66.2217Z" fill="currentColor"/>
<path d="M75.1089 19.114H76.5592V24.0205H82.0829V19.114H83.5641V30.1613H82.0829V25.3474H76.5592V30.1304H75.1089V19.114Z" fill="currentColor"/>
<path d="M92.3276 29.8837C91.6487 29.606 91.0624 29.2048 90.5378 28.6803C90.0132 28.1557 89.6121 27.5694 89.3344 26.8596C89.0566 26.1807 88.9023 25.4093 88.9023 24.5761C88.9023 23.7429 89.0566 22.9715 89.3344 22.2926C89.6121 21.6137 90.0132 20.9966 90.5378 20.5028C91.0316 20.0091 91.6487 19.6079 92.3276 19.3302C93.0065 19.0525 93.7471 18.8982 94.5185 18.8982C95.3209 18.8982 96.0306 19.0525 96.7095 19.3302C97.3884 19.6079 97.9747 20.0091 98.4993 20.5028C99.0238 20.9966 99.425 21.6137 99.7027 22.3235C99.9805 23.0332 100.135 23.7738 100.135 24.607C100.135 25.4401 99.9805 26.2116 99.7027 26.8905C99.425 27.5694 99.0238 28.1865 98.4993 28.7111C97.9747 29.2357 97.3884 29.6369 96.7095 29.9146C96.0306 30.1923 95.29 30.3466 94.5185 30.3466C93.7471 30.3157 93.0065 30.1615 92.3276 29.8837ZM96.6786 28.3717C97.2958 27.9705 97.7895 27.4459 98.1598 26.7979C98.5301 26.1499 98.6844 25.4093 98.6844 24.607C98.6844 23.8047 98.4993 23.0641 98.1598 22.416C97.7895 21.768 97.3266 21.2434 96.6786 20.8423C96.0615 20.4411 95.3517 20.256 94.5185 20.256C93.7162 20.256 93.0065 20.4411 92.3585 20.8423C91.7413 21.2434 91.2476 21.768 90.8773 22.416C90.507 23.0641 90.3527 23.8047 90.3527 24.607C90.3527 25.4093 90.5378 26.1499 90.8773 26.7979C91.2476 27.4459 91.7104 27.9705 92.3585 28.3717C92.9756 28.7728 93.6854 28.958 94.4877 28.958C95.3209 28.958 96.0615 28.7728 96.6786 28.3717Z" fill="currentColor"/>
<path d="M105.504 19.114H106.708L112.509 27.2606V19.114H113.99V30.1613H112.787L106.955 21.8604V30.1304H105.504V19.114Z" fill="currentColor"/>
<path d="M122.446 25.1005L118.619 19.114H120.255L123.155 23.681L126.056 19.114H127.691L123.927 25.1005V30.1613H122.446V25.1005Z" fill="currentColor"/>
<path d="M141.577 29.8837C140.898 29.606 140.312 29.2048 139.788 28.6803C139.263 28.1557 138.862 27.5694 138.584 26.8596C138.306 26.1807 138.152 25.4093 138.152 24.5761C138.152 23.7429 138.306 22.9715 138.584 22.2926C138.862 21.6137 139.263 20.9966 139.788 20.5028C140.281 20.0091 140.898 19.6079 141.577 19.3302C142.256 19.0525 142.997 18.8982 143.768 18.8982C144.571 18.8982 145.28 19.0525 145.959 19.3302C146.638 19.6079 147.224 20.0091 147.749 20.5028C148.274 20.9966 148.675 21.6137 148.952 22.3235C149.23 23.0332 149.385 23.7738 149.385 24.607C149.385 25.4401 149.23 26.2116 148.952 26.8905C148.675 27.5694 148.274 28.1865 147.749 28.7111C147.224 29.2357 146.638 29.6369 145.959 29.9146C145.28 30.1923 144.54 30.3466 143.768 30.3466C142.966 30.3157 142.256 30.1615 141.577 29.8837ZM145.898 28.3717C146.515 27.9705 147.008 27.4459 147.379 26.7979C147.749 26.1499 147.903 25.4093 147.903 24.607C147.903 23.8047 147.718 23.0641 147.379 22.416C147.008 21.768 146.546 21.2434 145.898 20.8423C145.28 20.4411 144.571 20.256 143.737 20.256C142.935 20.256 142.225 20.4411 141.577 20.8423C140.96 21.2434 140.466 21.768 140.096 22.416C139.726 23.0641 139.572 23.8047 139.572 24.607C139.572 25.4093 139.757 26.1499 140.096 26.7979C140.466 27.4459 140.929 27.9705 141.577 28.3717C142.195 28.7728 142.904 28.958 143.707 28.958C144.571 28.958 145.28 28.7728 145.898 28.3717Z" fill="currentColor"/>
<path d="M154.754 19.114H158.642C159.383 19.114 160 19.2374 160.555 19.5152C161.111 19.7929 161.543 20.1941 161.851 20.6878C162.16 21.1815 162.314 21.7987 162.314 22.5084C162.314 23.2799 162.129 23.9588 161.728 24.5142C161.327 25.0697 160.802 25.44 160.123 25.6868L162.685 30.1613H160.987L158.611 25.9337H156.173V30.1613H154.723V19.114H154.754ZM158.704 24.5759C159.352 24.5759 159.876 24.3908 160.278 24.0205C160.679 23.6502 160.864 23.1564 160.864 22.5084C160.864 21.8604 160.679 21.3667 160.278 20.9964C159.876 20.6261 159.352 20.4409 158.704 20.4409H156.204V24.5759H158.704Z" fill="currentColor"/>
<path d="M170.523 29.8836C169.875 29.6059 169.288 29.2047 168.795 28.711C168.301 28.2172 167.931 27.6001 167.653 26.8903C167.375 26.1806 167.252 25.44 167.252 24.6068C167.252 23.7737 167.375 23.0022 167.653 22.3233C167.931 21.6444 168.301 21.0273 168.795 20.5027C169.288 19.9781 169.844 19.5769 170.523 19.2992C171.171 19.0215 171.911 18.8672 172.683 18.8672C173.454 18.8672 174.133 18.9906 174.719 19.2683C175.337 19.5461 175.83 19.8855 176.262 20.3175C176.694 20.7495 176.972 21.1816 177.157 21.6753L175.83 22.2925C175.583 21.6753 175.182 21.1816 174.627 20.8113C174.071 20.441 173.423 20.2558 172.683 20.2558C171.911 20.2558 171.232 20.441 170.646 20.8113C170.06 21.1816 169.597 21.6753 169.257 22.3233C168.918 22.9713 168.764 23.7428 168.764 24.6068C168.764 25.4709 168.918 26.2115 169.257 26.8595C169.597 27.5075 170.06 28.0321 170.646 28.3715C171.232 28.7418 171.942 28.927 172.683 28.927C173.454 28.927 174.102 28.7418 174.627 28.3715C175.182 28.0012 175.583 27.5075 175.83 26.8903L177.157 27.5075C176.972 28.0012 176.694 28.4332 176.262 28.8653C175.83 29.2973 175.337 29.6367 174.719 29.9144C174.102 30.1922 173.423 30.3156 172.683 30.3156C171.911 30.3156 171.202 30.1613 170.523 29.8836Z" fill="currentColor"/>
<path d="M182.403 19.114H183.853V24.0205H189.377V19.114H190.858V30.1613H189.377V25.3474H183.853V30.1304H182.403V19.114Z" fill="currentColor"/>
<path d="M196.536 19.114H203.726V20.4409H197.986V23.9279H203.417V25.2548H197.986V28.8035H203.726V30.1304H196.536V19.114Z" fill="currentColor"/>
<path d="M210.638 29.9145C210.052 29.6368 209.558 29.2974 209.157 28.8345C208.756 28.3716 208.448 27.8779 208.293 27.3224L209.558 26.7979C209.805 27.5076 210.206 28.063 210.731 28.4333C211.256 28.8036 211.873 28.9888 212.583 28.9888C213.231 28.9888 213.755 28.8345 214.156 28.5259C214.557 28.2173 214.743 27.8162 214.743 27.2916C214.743 26.8287 214.619 26.4584 214.341 26.1807C214.064 25.903 213.693 25.7178 213.2 25.5635L211.163 24.9464C210.361 24.6995 209.744 24.2983 209.312 23.7737C208.879 23.2492 208.663 22.632 208.663 21.9223C208.663 21.3051 208.818 20.7805 209.096 20.3176C209.373 19.8547 209.805 19.4844 210.299 19.2376C210.824 18.9907 211.41 18.8364 212.058 18.8364C212.706 18.8364 213.323 18.9599 213.848 19.2067C214.372 19.4536 214.835 19.7622 215.236 20.1633C215.607 20.5645 215.884 21.0274 216.069 21.5211L214.835 22.0457C214.619 21.4285 214.249 20.9656 213.786 20.6262C213.292 20.2868 212.737 20.1325 212.12 20.1325C211.533 20.1325 211.04 20.2868 210.669 20.5953C210.299 20.9039 210.114 21.3051 210.114 21.8297C210.114 22.2308 210.237 22.5703 210.484 22.9097C210.731 23.2183 211.132 23.4652 211.657 23.6503L213.508 24.2058C215.267 24.7612 216.131 25.7487 216.131 27.1682C216.131 27.7853 215.977 28.3099 215.668 28.7728C215.36 29.2357 214.928 29.606 214.372 29.8528C213.817 30.0997 213.2 30.254 212.459 30.254C211.873 30.3157 211.225 30.1923 210.638 29.9145Z" fill="currentColor"/>
<path d="M223.537 20.4409H220.544V19.114H227.95V20.4409H224.988V30.1304H223.506V20.4409H223.537Z" fill="currentColor"/>
<path d="M232.609 19.114H236.498C237.238 19.114 237.855 19.2374 238.411 19.5152C238.966 19.7929 239.398 20.1941 239.707 20.6878C240.015 21.1815 240.17 21.7987 240.17 22.5084C240.17 23.2799 239.985 23.9588 239.583 24.5142C239.182 25.0697 238.658 25.44 237.979 25.6868L240.54 30.1613H238.843L236.467 25.9337H234.029V30.1613H232.579V19.114H232.609ZM236.528 24.5759C237.177 24.5759 237.701 24.3908 238.102 24.0205C238.503 23.6502 238.689 23.1564 238.689 22.5084C238.689 21.8604 238.503 21.3667 238.102 20.9964C237.701 20.6261 237.177 20.4409 236.528 20.4409H234.029V24.5759H236.528Z" fill="currentColor"/>
<path d="M248.347 19.114H250.075L254.025 30.1613H252.482L251.587 27.5692H246.866L245.971 30.1613H244.428L248.347 19.114ZM251.093 26.2114L249.211 20.7495L247.329 26.2114H251.093Z" fill="currentColor"/>
</svg>
