<svg viewBox="0 0 67 18">
    <path d="M3.08653 13.6951C2.34523 13.3722 1.69827 12.9283 1.17261 12.3632C0.646959 11.7982 0.24261 11.1256 0 10.3587L2.08914 9.4574C2.4261 10.2377 2.89784 10.8565 3.53132 11.3139C4.1648 11.7578 4.86567 11.9865 5.66089 11.9865C6.30785 11.9865 6.8335 11.8386 7.23785 11.5291C7.6422 11.2197 7.84438 10.8161 7.84438 10.3184C7.84438 9.9148 7.72307 9.57848 7.48046 9.32287C7.23785 9.06726 6.87394 8.85202 6.4022 8.69058L3.76045 7.84305C2.69566 7.49327 1.88696 6.99552 1.34783 6.33632C0.808699 5.67713 0.539132 4.89686 0.539132 4.00897C0.539132 3.2287 0.727829 2.52915 1.1187 1.92377C1.48261 1.31839 2.02175 0.847534 2.72262 0.511211C3.42349 0.174888 4.21871 0 5.10828 0C6.34828 0 7.42655 0.309417 8.34307 0.941704C9.2596 1.57399 9.90656 2.39462 10.2705 3.43049L8.22177 4.34529C7.9522 3.65919 7.54785 3.12108 7.00872 2.74439C6.46959 2.36771 5.83611 2.17937 5.12176 2.17937C4.4748 2.17937 3.96262 2.34081 3.58523 2.65022C3.20784 2.95964 3.00566 3.37668 3.00566 3.87444C3.00566 4.25112 3.12697 4.58744 3.38306 4.88341C3.63914 5.16592 4.00306 5.39462 4.50176 5.55605L7.03568 6.34978C9.23264 7.04933 10.3244 8.3139 10.3244 10.1435C10.3244 10.9238 10.1222 11.6233 9.71786 12.2287C9.31351 12.8341 8.74742 13.3049 8.03307 13.6413C7.31872 13.991 6.48307 14.1525 5.53959 14.1525C4.65002 14.1794 3.84132 14.0179 3.08653 13.6951Z"/>
    <path d="M13.5593 13.1166C12.9393 12.4843 12.6293 11.6233 12.6293 10.4933V6.08072H10.8906V3.92826H11.0793C11.578 3.92826 11.9554 3.79373 12.225 3.53812C12.4945 3.28252 12.6293 2.90583 12.6293 2.40808V1.62781H15.0419V3.9148H17.3467V6.06727H15.0419V10.3587C15.0419 10.8565 15.1767 11.2466 15.4463 11.5157C15.7159 11.7848 16.1472 11.9193 16.7402 11.9193C16.9424 11.9193 17.158 11.9058 17.3872 11.8655V13.9238C17.212 13.9507 17.0233 13.9776 16.7941 13.991C16.5785 14.0179 16.3628 14.0314 16.1876 14.0314C15.0554 14.0583 14.1793 13.7489 13.5593 13.1166Z"/>
    <path d="M20.4609 13.4663C19.6791 13.0089 19.0861 12.3767 18.6548 11.5695C18.2235 10.7758 18.0078 9.88786 18.0078 8.91926C18.0078 7.91029 18.2235 7.02239 18.6682 6.24212C19.0996 5.46186 19.7061 4.84302 20.4609 4.38562C21.2156 3.92822 22.0648 3.69952 22.9948 3.69952C24.0461 3.69952 24.9222 3.92822 25.65 4.37217C26.3778 4.81612 26.9305 5.40804 27.3078 6.14795C27.6852 6.88786 27.8739 7.70849 27.8739 8.59638C27.8739 8.78473 27.8605 8.95961 27.847 9.1345C27.8335 9.30939 27.7931 9.47082 27.7392 9.60535H20.5013C20.5687 10.3453 20.8517 10.9372 21.3504 11.3811C21.8491 11.8251 22.4557 12.0403 23.1835 12.0403C23.7361 12.0403 24.2078 11.9193 24.5987 11.6771C24.9896 11.435 25.2861 11.1255 25.5152 10.7489L27.4696 11.704C27.1596 12.417 26.6205 13.0089 25.8522 13.4663C25.0839 13.9237 24.1809 14.1524 23.17 14.1524C22.1457 14.1793 21.2291 13.9372 20.4609 13.4663ZM21.4313 6.24212C21 6.60535 20.7035 7.11656 20.5687 7.77576H25.2996C25.2457 7.15692 25.0165 6.65916 24.5852 6.26903C24.1539 5.8789 23.6283 5.69056 22.9813 5.69056C22.3883 5.69056 21.8626 5.8789 21.4313 6.24212Z"/>
    <path d="M30.5001 17.2062C29.651 16.6681 29.0579 15.9686 28.7344 15.0807L30.9853 14.2332C31.1336 14.704 31.4301 15.0807 31.8614 15.3632C32.2927 15.6457 32.8319 15.7937 33.4788 15.7937C34.2066 15.7937 34.7997 15.5919 35.2714 15.1749C35.7432 14.7578 35.9723 14.1928 35.9723 13.4529V12.3632C35.2579 13.1435 34.2875 13.5471 33.0745 13.5471C32.1445 13.5471 31.2953 13.3318 30.5675 12.9013C29.8262 12.4708 29.2466 11.8789 28.8288 11.1255C28.411 10.3722 28.1953 9.53809 28.1953 8.59638C28.1953 7.65468 28.411 6.80715 28.8288 6.06724C29.2466 5.32733 29.8262 4.74885 30.5405 4.33181C31.2684 3.90132 32.0905 3.69952 33.0205 3.69952C34.3145 3.69952 35.3388 4.15692 36.1071 5.08517V3.92822H38.3984V13.4529C38.3984 14.3273 38.1827 15.1076 37.7649 15.7937C37.3471 16.4798 36.7675 17.0179 36.0262 17.4215C35.2849 17.8116 34.4358 18.0134 33.4788 18.0134C32.3466 18 31.3492 17.7444 30.5001 17.2062ZM35.2445 10.5605C35.7297 10.0628 35.9723 9.41701 35.9723 8.62329C35.9723 7.84302 35.7297 7.18383 35.2445 6.67262C34.7592 6.16141 34.1392 5.9058 33.371 5.9058C32.8723 5.9058 32.414 6.02688 32.0097 6.25558C31.6053 6.48428 31.2818 6.80715 31.0527 7.22419C30.8236 7.64123 30.7158 8.09863 30.7158 8.60984C30.7158 9.39011 30.9584 10.0224 31.4571 10.5336C31.9558 11.0448 32.5892 11.3004 33.371 11.3004C34.1258 11.3139 34.7592 11.0583 35.2445 10.5605Z"/>
    <path d="M39.9102 3.92827H42.188V5.34082C42.4441 4.76235 42.808 4.35876 43.2797 4.14351C43.7515 3.92827 44.2906 3.80719 44.9106 3.80719H45.5037V5.9462H44.6141C43.9402 5.9462 43.3876 6.16145 42.9563 6.57849C42.525 7.00898 42.3228 7.60091 42.3228 8.35427V13.9372H39.9102V3.92827Z"/>
    <path d="M48.1171 13.4663C47.3354 12.9955 46.7423 12.3632 46.311 11.5695C45.8797 10.7758 45.6641 9.88786 45.6641 8.91926C45.6641 7.91029 45.8797 7.02239 46.3245 6.24212C46.7558 5.46186 47.3623 4.84302 48.1171 4.38562C48.8719 3.92822 49.721 3.69952 50.651 3.69952C51.7023 3.69952 52.5784 3.92822 53.3063 4.37217C54.0341 4.81612 54.5867 5.40804 54.9641 6.14795C55.3415 6.88786 55.5302 7.70849 55.5302 8.59638C55.5302 8.78473 55.5167 8.95961 55.5032 9.1345C55.4897 9.30939 55.4493 9.47082 55.3954 9.60535H48.1575C48.2249 10.3453 48.508 10.9372 49.0067 11.3811C49.5054 11.8251 50.1119 12.0403 50.8397 12.0403C51.3923 12.0403 51.8641 11.9193 52.255 11.6771C52.6458 11.435 52.9424 11.1255 53.1715 10.7489L55.1258 11.704C54.8158 12.417 54.2767 13.0089 53.5084 13.4663C52.7402 13.9237 51.8371 14.1524 50.8263 14.1524C49.8019 14.1793 48.8989 13.9372 48.1171 13.4663ZM49.0876 6.24212C48.6563 6.60535 48.3597 7.11656 48.2249 7.77576H52.9558C52.9019 7.15692 52.6728 6.65916 52.2415 6.26903C51.8102 5.8789 51.2845 5.69056 50.6376 5.69056C50.0445 5.69056 49.5323 5.8789 49.0876 6.24212Z"/>
    <path d="M56.6367 0.215271H59.0493V2.79823H56.6367V0.215271ZM56.6367 3.92828H59.0493V13.9507H56.6367V3.92828Z"/>
    <path d="M61.7166 6.08072H59.9375V3.92825H61.7166V3.59193C61.7166 2.44843 62.0671 1.56054 62.7545 0.941704C63.4419 0.309417 64.3719 0 65.5175 0C65.868 0 66.178 0.0269058 66.461 0.0941704V2.17937C66.2453 2.13901 66.0297 2.12556 65.8275 2.12556C65.3019 2.12556 64.884 2.24664 64.5875 2.48879C64.291 2.73094 64.1293 3.09417 64.1293 3.60538V3.9417H66.3667V6.09417H64.1293V13.9641H61.7166V6.08072V6.08072Z"/>
</svg>
    