<svg width="1860" height="2380" viewBox="0 0 1860 2380" fill="none" xmlns="http://www.w3.org/2000/svg">
<g clip-path="url(#clip0_794_13630)">
<g clip-path="url(#clip1_794_13630)">
<path d="M453.021 1673C451.347 1670.75 449.555 1672.16 447.971 1671.69C446.49 1671.26 446.327 1672.31 446.229 1673.33C446.188 1673.71 446.314 1674.07 446.338 1674.4C445.254 1674.35 444.376 1674.34 444.569 1672.74C444.86 1670.12 443.951 1669.17 441.256 1668.75C440.161 1668.52 439.066 1668.3 437.764 1668.02C438.003 1667.09 437.88 1666.29 439.353 1666.12C440.994 1665.94 442.744 1664.9 444.271 1666.01C445.516 1666.94 445.664 1666.15 446.083 1665.38C446.54 1664.68 447.429 1664.85 447.411 1665.56C447.295 1667.29 448.299 1667.66 449.627 1667.83C452.966 1668.31 452.966 1668.31 453.021 1673Z" fill="#020122"/>
</g>
<path d="M591.588 1886.16C594.205 1887.17 594.974 1884.91 596.564 1884.41C598.053 1883.95 597.627 1882.93 597.167 1881.98C597.002 1881.63 596.702 1881.38 596.503 1881.1C597.454 1880.53 598.201 1880.03 598.891 1881.55C600.041 1884.01 601.318 1884.32 603.826 1883.14C604.876 1882.72 605.926 1882.29 607.18 1881.79C607.472 1882.74 608.003 1883.37 606.845 1884.36C605.551 1885.46 604.618 1887.37 602.732 1887.27C601.183 1887.18 601.477 1887.95 601.533 1888.87C601.522 1889.75 600.675 1890.1 600.312 1889.47C599.489 1887.89 598.441 1888.14 597.22 1888.75C594.135 1890.24 594.135 1890.24 591.588 1886.16Z" fill="#020122"/>
<path d="M780.707 1926.94C777.927 1927.38 778.291 1929.73 777.116 1930.97C776.015 1932.12 776.862 1932.79 777.708 1933.38C778.015 1933.61 778.394 1933.67 778.7 1933.81C778.121 1934.78 777.69 1935.59 776.382 1934.63C774.229 1933.07 772.956 1933.45 771.281 1935.73C770.55 1936.64 769.819 1937.54 768.942 1938.6C768.245 1937.93 767.483 1937.65 768.049 1936.2C768.686 1934.59 768.63 1932.47 770.343 1931.6C771.758 1930.9 771.141 1930.38 770.668 1929.61C770.27 1928.84 770.855 1928.11 771.468 1928.47C772.926 1929.43 773.737 1928.68 774.537 1927.54C776.574 1924.68 776.574 1924.68 780.707 1926.94Z" fill="#020122"/>
<path d="M440.778 1827.82C439.121 1825.48 437.314 1826.97 435.731 1826.5C434.252 1826.05 434.079 1827.16 433.972 1828.23C433.927 1828.62 434.051 1829 434.071 1829.35C432.986 1829.3 432.107 1829.3 432.314 1827.62C432.629 1824.88 431.726 1823.89 429.031 1823.47C427.936 1823.24 426.841 1823.02 425.54 1822.73C425.788 1821.76 425.672 1820.92 427.148 1820.73C428.793 1820.53 430.555 1819.43 432.075 1820.58C433.314 1821.54 433.469 1820.71 433.896 1819.9C434.36 1819.16 435.249 1819.33 435.224 1820.07C435.092 1821.89 436.095 1822.26 437.423 1822.44C440.764 1822.91 440.764 1822.91 440.778 1827.82Z" fill="#020122"/>
<path d="M417.956 2199.04C417.57 2198.19 417.016 2197.36 416.93 2196.41C416.729 2194.63 416.015 2193.35 414.254 2193.36C412.661 2193.35 412.893 2192.02 412.92 2191.28C412.899 2190.3 414.219 2189.66 415.456 2189.97C415.934 2190.04 416.169 2190.62 416.252 2189.66C416.491 2187.24 418.661 2185.44 418.384 2182.88C418.45 2182.84 418.843 2182.6 419.049 2182.65C419.217 2182.64 419.536 2182.89 419.546 2183.07C419.504 2185.37 419.705 2187.78 418.463 2189.83C417.781 2190.98 417.792 2191.79 418.094 2192.96C418.538 2194.87 418.514 2196.88 418.723 2198.84C418.489 2198.89 418.255 2198.95 417.956 2199.04Z" fill="#020122"/>
<path d="M635.221 2033.76C634.836 2032.91 634.281 2032.07 634.195 2031.13C633.995 2029.34 633.281 2028.06 631.52 2028.07C629.927 2028.06 630.159 2026.74 630.185 2026C630.165 2025.01 631.484 2024.37 632.722 2024.69C633.2 2024.76 633.435 2025.34 633.517 2024.38C633.756 2021.96 635.926 2020.15 635.65 2017.6C635.715 2017.56 636.108 2017.31 636.314 2017.37C636.483 2017.35 636.802 2017.61 636.812 2017.78C636.769 2020.08 636.971 2022.5 635.729 2024.54C635.047 2025.69 635.058 2026.5 635.36 2027.68C635.804 2029.58 635.779 2031.59 635.989 2033.55C635.755 2033.61 635.521 2033.66 635.221 2033.76Z" fill="#020122"/>
<g clip-path="url(#clip2_794_13630)">
<path d="M1599.15 169.447C1599.68 166.696 1597.43 166.325 1596.7 164.844C1596.03 163.457 1595.14 164.051 1594.32 164.667C1594.01 164.889 1593.83 165.227 1593.6 165.471C1592.91 164.632 1592.33 163.98 1593.63 163.042C1595.76 161.488 1595.85 160.177 1594.34 157.906C1593.76 156.945 1593.19 155.983 1592.52 154.834C1593.36 154.384 1593.87 153.752 1594.99 154.723C1596.23 155.81 1598.18 156.403 1598.39 158.278C1598.55 159.822 1599.23 159.4 1600.08 159.187C1600.91 159.047 1601.38 159.82 1600.85 160.287C1599.5 161.369 1599.9 162.358 1600.67 163.457C1602.57 166.241 1602.57 166.241 1599.15 169.447Z" fill="#020122"/>
</g>
<path d="M1535.6 415.629C1536.62 418.241 1538.81 417.281 1540.25 418.114C1541.6 418.897 1542.07 417.894 1542.45 416.913C1542.6 416.554 1542.58 416.167 1542.65 415.831C1543.72 416.147 1544.59 416.363 1543.94 417.893C1542.9 420.404 1543.53 421.556 1546.09 422.611C1547.12 423.096 1548.14 423.581 1549.36 424.167C1548.86 425.025 1548.75 425.844 1547.23 425.661C1545.55 425.449 1543.51 426.051 1542.31 424.594C1541.34 423.386 1540.96 424.126 1540.33 424.786C1539.67 425.374 1538.83 424.99 1539.05 424.295C1539.66 422.619 1538.77 422.016 1537.5 421.525C1534.31 420.261 1534.31 420.261 1535.6 415.629Z" fill="#020122"/>
<path d="M1476.75 265.014C1477.35 262.214 1475.03 261.887 1474.31 260.402C1473.64 259.011 1472.7 259.633 1471.84 260.275C1471.53 260.507 1471.33 260.854 1471.08 261.106C1470.39 260.27 1469.8 259.623 1471.17 258.643C1473.41 257.02 1473.53 255.689 1472.01 253.42C1471.44 252.458 1470.87 251.496 1470.2 250.346C1471.08 249.871 1471.62 249.219 1472.76 250.179C1474.02 251.253 1476.02 251.812 1476.2 253.708C1476.33 255.269 1477.05 254.826 1477.93 254.592C1478.8 254.432 1479.27 255.205 1478.7 255.69C1477.28 256.817 1477.68 257.811 1478.45 258.908C1480.36 261.689 1480.36 261.689 1476.75 265.014Z" fill="#020122"/>
<path d="M1443.22 1010.89C1443.83 1008.09 1441.51 1007.76 1440.79 1006.27C1440.12 1004.88 1439.18 1005.5 1438.32 1006.15C1438 1006.38 1437.81 1006.73 1437.56 1006.98C1436.87 1006.14 1436.27 1005.49 1437.65 1004.51C1439.89 1002.89 1440 1001.56 1438.49 999.292C1437.92 998.33 1437.35 997.368 1436.68 996.218C1437.56 995.743 1438.1 995.091 1439.24 996.051C1440.5 997.125 1442.5 997.684 1442.68 999.58C1442.81 1001.14 1443.52 1000.7 1444.41 1000.46C1445.27 1000.3 1445.74 1001.08 1445.18 1001.56C1443.75 1002.69 1444.15 1003.68 1444.92 1004.78C1446.83 1007.56 1446.83 1007.56 1443.22 1010.89Z" fill="#020122"/>
<path d="M1039.13 861.099C1039.73 858.298 1037.41 857.971 1036.69 856.486C1036.02 855.095 1035.09 855.717 1034.23 856.359C1033.91 856.591 1033.71 856.938 1033.47 857.19C1032.77 856.355 1032.18 855.707 1033.55 854.727C1035.79 853.104 1035.91 851.773 1034.39 849.504C1033.82 848.542 1033.25 847.58 1032.58 846.43C1033.47 845.955 1034.01 845.303 1035.15 846.263C1036.41 847.338 1038.41 847.896 1038.59 849.792C1038.72 851.353 1039.43 850.91 1040.32 850.676C1041.18 850.516 1041.65 851.289 1041.09 851.774C1039.66 852.901 1040.06 853.895 1040.83 854.992C1042.74 857.773 1042.74 857.773 1039.13 861.099Z" fill="#020122"/>
<path d="M1338.38 822.73C1338.74 821.872 1338.99 820.899 1339.62 820.197C1340.8 818.845 1341.26 817.454 1340.07 816.16C1339 814.981 1340.13 814.257 1340.7 813.775C1341.41 813.093 1342.77 813.634 1343.38 814.761C1343.65 815.158 1343.38 815.723 1344.14 815.136C1346.09 813.678 1348.89 814.058 1350.58 812.13C1350.65 812.151 1351.1 812.276 1351.2 812.464C1351.33 812.578 1351.35 812.986 1351.23 813.112C1349.51 814.632 1347.86 816.413 1345.52 816.879C1344.21 817.154 1343.62 817.709 1342.95 818.725C1341.85 820.338 1340.35 821.68 1339.05 823.157C1338.85 823.022 1338.65 822.886 1338.38 822.73Z" fill="#020122"/>
<path d="M1187.61 498.955C1187.97 498.097 1188.21 497.124 1188.85 496.422C1190.03 495.07 1190.49 493.678 1189.3 492.385C1188.23 491.206 1189.36 490.482 1189.92 489.999C1190.64 489.318 1192 489.858 1192.6 490.986C1192.88 491.383 1192.61 491.948 1193.37 491.361C1195.32 489.903 1198.11 490.283 1199.81 488.355C1199.88 488.376 1200.33 488.5 1200.43 488.688C1200.55 488.803 1200.58 489.211 1200.46 489.336C1198.73 490.857 1197.09 492.638 1194.74 493.104C1193.43 493.379 1192.84 493.934 1192.18 494.95C1191.08 496.563 1189.58 497.905 1188.28 499.382C1188.08 499.246 1187.88 499.111 1187.61 498.955Z" fill="#020122"/>
<path d="M1500.16 933.206C1500.53 932.347 1500.77 931.374 1501.41 930.672C1502.58 929.321 1503.05 927.929 1501.85 926.636C1500.78 925.457 1501.91 924.732 1502.48 924.25C1503.19 923.569 1504.56 924.109 1505.16 925.237C1505.43 925.634 1505.16 926.199 1505.93 925.612C1507.87 924.154 1510.67 924.534 1512.36 922.606C1512.44 922.627 1512.88 922.751 1512.98 922.939C1513.11 923.054 1513.13 923.462 1513.01 923.587C1511.29 925.107 1509.64 926.889 1507.3 927.354C1505.99 927.629 1505.4 928.185 1504.74 929.201C1503.63 930.813 1502.13 932.155 1500.83 933.633C1500.63 933.497 1500.43 933.362 1500.16 933.206Z" fill="#020122"/>
<path d="M1456.25 547.502C1456.62 546.644 1456.86 545.671 1457.5 544.969C1458.68 543.618 1459.14 542.226 1457.95 540.932C1456.87 539.753 1458.01 539.029 1458.57 538.547C1459.29 537.866 1460.65 538.406 1461.25 539.534C1461.52 539.93 1461.26 540.496 1462.02 539.908C1463.96 538.45 1466.76 538.831 1468.46 536.903C1468.53 536.924 1468.98 537.048 1469.08 537.236C1469.2 537.351 1469.23 537.758 1469.1 537.884C1467.38 539.404 1465.74 541.186 1463.39 541.651C1462.08 541.926 1461.49 542.482 1460.83 543.497C1459.73 545.11 1458.23 546.452 1456.92 547.929C1456.73 547.794 1456.53 547.658 1456.25 547.502Z" fill="#020122"/>
<path d="M156.65 50.1263C157.673 52.7378 159.859 51.7777 161.303 52.6115C162.652 53.3946 163.116 52.3912 163.505 51.4102C163.654 51.0514 163.632 50.6642 163.704 50.3277C164.766 50.6443 165.637 50.8596 164.988 52.3899C163.95 54.9013 164.583 56.0531 167.145 57.1083C168.17 57.5932 169.195 58.0781 170.41 58.6645C169.906 59.5218 169.8 60.3408 168.285 60.1578C166.601 59.9463 164.563 60.5476 163.36 59.0915C162.386 57.8829 162.014 58.6227 161.376 59.2833C160.719 59.871 159.884 59.4875 160.105 58.7922C160.716 57.1159 159.822 56.5135 158.551 56.0224C155.364 54.7581 155.364 54.7581 156.65 50.1263Z" fill="#020122"/>
<path d="M64.2738 645.383C64.8778 642.583 62.5593 642.256 61.838 640.771C61.1664 639.38 60.2325 640.002 59.3725 640.644C59.0531 640.876 58.8574 641.223 58.612 641.475C57.9182 640.639 57.3238 639.992 58.6999 639.012C60.9359 637.389 61.0534 636.058 59.5399 633.789C58.9688 632.827 58.3976 631.865 57.7271 630.715C58.6124 630.24 59.1519 629.588 60.2899 630.548C61.5517 631.623 63.5508 632.181 63.7316 634.077C63.8616 635.638 64.5745 635.195 65.4609 634.961C66.3229 634.801 66.7946 635.574 66.2298 636.059C64.805 637.186 65.2038 638.18 65.9727 639.277C67.8828 642.058 67.8828 642.058 64.2738 645.383Z" fill="#020122"/>
<path d="M121.211 567.703C121.577 566.844 121.818 565.872 122.457 565.169C123.636 563.818 124.097 562.426 122.902 561.133C121.831 559.954 122.964 559.23 123.53 558.747C124.243 558.066 125.607 558.606 126.207 559.734C126.482 560.131 126.213 560.696 126.976 560.109C128.921 558.651 131.718 559.031 133.413 557.103C133.487 557.124 133.933 557.248 134.033 557.436C134.157 557.551 134.185 557.959 134.062 558.084C132.34 559.605 130.694 561.386 128.347 561.852C127.038 562.126 126.448 562.682 125.786 563.698C124.683 565.311 123.183 566.652 121.881 568.13C121.683 567.994 121.484 567.859 121.211 567.703Z" fill="#020122"/>
<path d="M77.3052 181.999C77.6709 181.141 77.9122 180.168 78.5509 179.466C79.7296 178.115 80.1909 176.723 78.9958 175.429C77.9251 174.25 79.0582 173.526 79.6241 173.044C80.3371 172.363 81.7006 172.903 82.3011 174.031C82.5756 174.428 82.3071 174.993 83.0701 174.405C85.0148 172.948 87.8118 173.328 89.5063 171.4C89.5807 171.421 90.0266 171.545 90.1267 171.733C90.251 171.848 90.2783 172.255 90.1554 172.381C88.4336 173.901 86.7877 175.683 84.4411 176.148C83.132 176.423 82.5419 176.979 81.8805 177.995C80.7775 179.607 79.2772 180.949 77.9756 182.426C77.7769 182.291 77.5782 182.156 77.3052 181.999Z" fill="#020122"/>
</g>
<defs>
<clipPath id="clip0_794_13630">
<rect width="1860" height="2380" fill="white"/>
</clipPath>
<clipPath id="clip1_794_13630">
<rect width="13.3953" height="12.3417" fill="white" transform="matrix(0.508022 0.861344 -0.861349 0.508013 447.703 1660.58)"/>
</clipPath>
<clipPath id="clip2_794_13630">
<rect width="13.3953" height="12.3417" fill="white" transform="matrix(-0.291835 0.956468 -0.956465 -0.291844 1604.72 157.138)"/>
</clipPath>
</defs>
</svg>
